<svg width="90" height="90" viewBox="0 0 90 90" fill="none" xmlns="http://www.w3.org/2000/svg">
<path d="M45 0C20.16 0 0 20.16 0 45C0 69.84 20.16 90 45 90C69.84 90 90 69.84 90 45C90 20.16 69.84 0 45 0ZM63 49.5H49.5V63C49.5 65.475 47.475 67.5 45 67.5C42.525 67.5 40.5 65.475 40.5 63V49.5H27C24.525 49.5 22.5 47.475 22.5 45C22.5 42.525 24.525 40.5 27 40.5H40.5V27C40.5 24.525 42.525 22.5 45 22.5C47.475 22.5 49.5 24.525 49.5 27V40.5H63C65.475 40.5 67.5 42.525 67.5 45C67.5 47.475 65.475 49.5 63 49.5Z" fill="#8E44AD"/>
</svg>
