<svg width="876" height="712" viewBox="0 0 876 712" fill="none" xmlns="http://www.w3.org/2000/svg">
<path d="M408.693 270.481C416.71 308.599 441.957 346.716 462.563 350.092C483.098 353.468 477.542 328.712 489.779 313.662C502.016 298.612 526.349 304.73 561.442 299.597C596.535 294.463 605.466 297.416 614.116 274.489C622.766 251.563 625.017 227.088 605.325 200.434C585.704 173.78 577.125 161.824 542.313 157.956C507.572 154.018 466.501 147.266 447.724 163.371C429.017 179.476 418.89 207.467 437.175 203.036C455.46 198.535 472.901 182.43 502.508 186.158C532.045 189.885 546.322 189.111 549.064 217.664C551.877 246.218 534.296 266.261 518.754 266.894C503.212 267.597 494.28 264.714 463.126 267.316C431.971 270.059 406.513 260.002 408.693 270.481Z" fill="#B0FFF0"/>
<path d="M73.5129 150.569C63.8782 160.134 55.65 170.683 48.6173 181.724C16.2671 232.29 9.58613 291.436 13.5947 296.922C18.5176 303.532 95.3141 256.131 117.537 250.505C139.69 244.949 105.722 221.6 110.434 199.799C115.146 177.997 128.719 160.415 151.083 150.921C173.447 141.497 187.864 135.519 208.68 133.761C229.356 132.002 255.94 147.193 265.082 145.013C274.225 142.763 266.981 102.465 251.72 95.4318C191.169 102.254 130.899 103.59 73.5129 150.569Z" fill="#F0D2FF"/>
<path d="M653.992 119.909C689.999 135.029 715.95 157.464 734.446 183.274C751.817 207.326 762.577 234.403 768.906 261.127C778.4 301.003 778.189 340.106 775.095 367.885C772.563 390.953 768.132 406.144 765.741 407.339C756.458 412.192 680.998 424.78 658.774 431.743C636.551 438.635 603.92 446.371 592.456 440.815C581.063 435.189 579.094 418.31 590.98 412.262C602.865 406.284 624.174 390.249 640.419 370.206C656.735 350.162 664.471 316.827 668.269 285.953C671.996 255.079 666.792 222.587 658.493 202.825C650.265 183.133 658.352 173.077 653.852 156.127C649.351 139.108 643.795 115.619 653.992 119.909Z" fill="#BBB0FF"/>
<path d="M427.47 663.263C428.947 674.796 428.314 673.671 441.184 675.429C454.054 677.258 526.56 674.867 533.101 672.546C539.641 670.225 670.097 640.336 675.794 627.607C681.42 614.877 680.154 613.541 664.541 618.112C648.788 622.684 534.929 659.676 510.385 657.425C485.912 655.175 426.486 655.456 427.47 663.263Z" fill="#E9D9F0"/>
<path d="M374.444 428.508C407.568 492.084 438.934 531.82 445.544 563.116C452.085 594.412 454.335 602.288 454.335 602.288C454.335 602.288 494.562 599.897 502.579 592.513C510.596 585.058 514.183 559.318 524.24 533.859C534.226 508.401 572.202 463.25 574.242 443.98C576.281 424.64 554.058 431.532 532.046 431.954C510.034 432.376 484.224 431.391 457.5 420.069C430.776 408.676 411.155 380.755 398.004 388.069C384.782 395.313 369.592 419.225 374.444 428.508Z" fill="#ACD3E9"/>
<path d="M299.966 213.584C310.867 241.997 314.665 268.44 313.961 286.515C313.258 304.589 298.982 305.362 299.755 319.569C300.529 333.845 295.465 363.383 298.841 376.464C302.217 389.475 314.805 397.773 328.8 403.47C342.866 409.166 366.918 423.021 372.966 400.024C379.014 376.956 386.468 383.708 377.396 351.005C368.324 318.373 358.971 292.141 365.23 263.939C371.489 235.738 393.29 206.833 385.976 196.213C378.592 185.594 296.45 204.371 299.966 213.584Z" fill="#F0D2FF"/>
<path d="M280.062 90.5792C289.204 88.61 298.839 87.4144 308.685 86.5705C326.899 85.0936 346.028 84.8826 364.946 83.9683C416.847 81.4365 470.717 84.1793 515.655 88.61C566.502 93.5329 606.025 100.566 618.332 104.293C647.729 113.154 642.032 162.103 631.624 163.017C621.216 163.931 579.512 140.301 547.373 135.237C515.234 130.033 485.556 128.908 457.988 138.191C430.49 147.475 408.197 155.703 392.233 168.01C376.268 180.318 365.719 183.764 337.167 187.843C308.544 191.922 287.657 197.618 285.547 184.608C283.508 171.597 282.805 154.718 278.726 127.431C276.827 115.053 270.568 107.739 267.122 102.746C262.902 96.6977 262.902 94.1659 280.062 90.5792Z" fill="#ACD3E9"/>
<path d="M632.824 466.907C606.873 502.141 542.876 619.871 550.471 624.09C558.067 628.24 661.306 601.163 674.739 587.52C686.342 575.634 722.772 497.218 730.437 463.461C731.633 458.186 732.125 453.967 731.703 451.365C731.211 448.34 728.538 446.653 724.389 445.879C701.392 441.8 632.824 466.907 632.824 466.907Z" fill="#DAE9E9"/>
<path d="M493.859 617.339C474.167 625.637 437.527 635.905 438.089 639.14C438.582 642.375 489.78 639.14 505.463 635.202C521.075 631.334 531.624 627.184 522.13 622.332C512.566 617.409 493.859 617.339 493.859 617.339Z" fill="#9F92FF"/>
<path d="M315.088 642.797C338.858 635.905 376.624 640.617 390.056 643.711C403.488 646.806 406.583 651.448 406.231 659.254C405.95 666.99 406.512 669.592 399.269 673.812C391.955 678.102 365.442 677.68 346.594 680.845C327.747 684.01 324.019 679.368 321.136 670.155C318.252 661.012 309.18 644.485 315.088 642.797Z" fill="#FF9CC7"/>
<path d="M274.787 414.299C280.413 426.818 294.619 437.085 286.532 444.54C278.515 451.925 270.779 451.643 270.427 460.716C270.075 469.718 314.803 616.281 328.939 619.376C343.004 622.541 392.021 625.705 402.43 623.525C412.908 621.345 420.574 624.228 419.097 594.409C417.691 564.661 364.524 468.17 342.09 445.384C319.726 422.528 271.201 406.422 274.787 414.299Z" fill="#E9FFA9"/>
<path d="M159.592 417.675C73.5833 467.327 61.6981 574.225 77.8732 625.283C93.9779 676.271 114.443 682.249 146.512 689.985C178.51 697.651 269.091 695.963 286.25 686.258C303.48 676.623 301.582 657.142 290.048 655.384C278.444 653.696 253.83 655.313 231.958 653.133C210.017 651.023 172.392 654.751 154.74 643.709C137.018 632.668 125.414 598.629 127.524 578.023C129.633 557.417 138.284 533.154 149.676 540.046C161.069 547.008 149.465 578.867 163.109 593.636C176.752 608.334 182.8 620.22 198.202 623.384C213.603 626.62 236.881 626.198 238.428 618.461C240.046 610.796 232.169 545.883 228.301 513.391C224.363 480.9 221.831 479.493 212.197 461.067C202.562 442.571 192.646 465.428 177.315 459.661C162.054 453.964 159.592 417.675 159.592 417.675Z" fill="#48FF9F"/>
<path d="M130.688 260.07C81.249 269.775 26.746 291.014 10.0083 322.591C4.52287 333 -2.15814 389.192 0.725238 438.281C6.49201 539.412 31.0359 665.089 38.2092 681.897C42.6398 692.305 49.3208 696.947 55.3689 698.072C63.808 699.69 70.9813 694.345 68.9419 688.297C65.4959 677.748 52.4152 647.507 47.0704 620.149C41.5849 592.791 47.211 514.165 61.6982 474.64C76.1152 435.116 133.009 402.414 141.237 389.755C149.466 377.096 150.661 347.487 148.551 334.477C146.442 321.466 132.095 326.037 131.392 310.495C130.688 294.952 132.095 291.155 137.791 277.16C143.558 263.094 130.688 260.07 130.688 260.07Z" fill="#E3D9FF"/>
<path d="M143.066 191.359C129.985 196.071 138.143 218.365 146.582 218.014C155.021 217.732 161.069 210.207 183.925 204.581C206.781 199.025 213.884 199.939 233.295 198.111C252.775 196.282 268.669 203.948 265.434 185.733C262.269 167.518 253.619 157.532 233.506 159.993C213.392 162.455 212.619 165.619 194.896 172.019C177.174 178.489 179.284 174.692 165.57 177.364C151.927 180.107 143.066 191.359 143.066 191.359Z" fill="#FF9F3E"/>
<path d="M157.131 230.04C157.764 240.378 164.023 268.509 163.179 273.643C162.335 278.707 153.825 281.66 155.443 289.467C157.131 297.273 165.57 295.023 167.258 301.563C168.946 308.104 172.181 392.216 178.862 402.835C185.543 413.455 225.84 419.222 242.789 415.354C259.737 411.486 253.478 378.572 257.557 374.845C261.566 371.118 267.333 372.665 270.919 363.733C274.436 354.801 268.458 309.37 270.568 304.869C272.678 300.438 285.055 297.695 287.938 290.1C290.822 282.434 275.139 219.772 270.497 206.62C265.786 193.539 181.183 209.012 171.266 215.763C161.28 222.444 156.709 223.57 157.131 230.04Z" fill="#FF9CC7"/>
<path d="M591.471 459.804C570.303 473.236 544.634 533.015 536.195 552.074C527.685 571.133 519.316 619.941 527.193 616.354C535.069 612.767 557.433 537.376 573.678 517.332C589.994 497.289 607.646 474.643 609.334 464.375C611.022 454.107 591.471 459.804 591.471 459.804Z" fill="#50FF92"/>
<path d="M397.933 213.796C415.937 199.59 433.237 203.529 444.7 208.452C456.163 213.445 456.093 197.269 481.411 193.753C506.798 190.166 528.037 193.612 536.547 206.834C545.056 220.126 543.439 229.058 534.718 237.145C525.998 245.233 511.651 248.538 498.852 245.444C486.052 242.42 479.019 238.904 460.664 247.202C442.239 255.571 443.927 261.479 422.758 256.134C401.66 250.789 394.979 256.978 392.307 241.998C389.634 227.088 397.933 213.796 397.933 213.796Z" fill="#FFE39F"/>
<path d="M506.939 338.207C519.668 308.317 546.533 317.108 563.13 320.976C579.798 324.915 578.11 318.374 595.762 314.506C613.343 310.638 611.023 320.906 608.139 327.869C605.256 334.901 599.63 348.264 582.118 348.897C564.677 349.53 565.099 337.855 547.377 344.958C529.655 352.061 533.734 363.806 512.565 358.532C491.467 353.116 506.939 338.207 506.939 338.207Z" fill="#FFE39F"/>
<path d="M277.038 196.212C283.437 215.201 295.041 283.489 296.026 290.662C297.081 297.836 284.633 300.579 278.796 302.899C272.818 305.291 283.648 344.534 280.976 361.834C278.374 379.205 258.893 381.667 245.883 383.777C232.873 385.886 225.84 384.269 216.205 383.284C206.5 382.229 208.75 390.739 216.486 392.357C224.152 393.904 235.193 393.693 249.47 391.653C263.746 389.614 283.789 389.121 288.712 364.085C293.494 339.048 283.437 316.051 286.251 310.354C289.064 304.587 299.894 306.978 303.621 295.445C307.278 283.981 288.642 197.267 284.281 193.258C279.921 189.179 277.038 196.212 277.038 196.212Z" fill="black"/>
<path d="M260.651 235.244C252.212 237.494 256.432 244.527 260.229 246.004C264.097 247.411 271.06 246.004 271.341 238.268C271.693 230.532 260.651 235.244 260.651 235.244Z" fill="black"/>
<path d="M206.711 243.894C198.342 242.91 192.435 252.123 197.498 254.303C202.562 256.413 210.72 256.342 210.931 251.208C211.142 246.004 206.711 243.894 206.711 243.894Z" fill="black"/>
<path d="M223.59 342.143C235.545 349.738 263.535 345.026 266.77 344.534C270.075 343.971 270.568 347.909 263.957 352.129C257.276 356.419 250.876 355.505 242.437 355.856C233.998 356.138 231.536 353.465 225.207 350.019C218.878 346.503 223.59 342.143 223.59 342.143Z" fill="black"/>
<path d="M274.506 177.997C274.435 163.087 262.48 154.929 254.744 153.945C247.008 153.03 248.274 154.367 236.248 148.74C224.152 143.114 220.987 140.371 205.937 145.646C190.888 150.85 197.217 155 187.934 159.782C178.721 164.635 182.026 161.47 165.218 162.806C148.34 164.072 143.628 169.698 141.378 176.731C139.198 183.764 138.073 179.192 126.75 187.21C115.498 195.157 116.904 208.097 119.928 212.739C123.023 217.381 127.313 223.358 130.759 218.365C134.205 213.302 126.398 213.653 125.484 204.581C124.5 195.509 131.04 193.188 137.018 190.164C142.925 187.139 146.16 187.913 149.606 182.217C153.052 176.52 147.285 175.043 159.03 172.23C170.774 169.487 176.4 174.199 182.308 171.878C188.215 169.487 192.083 169.628 198.202 162.103C204.32 154.578 210.157 154.156 215.432 151.132C220.706 148.107 229.005 151.694 233.998 155.773C238.991 159.782 240.96 159.923 248.696 160.204C256.432 160.485 256.924 163.72 263.886 169.206C270.778 174.621 267.332 179.685 269.864 182.357C272.326 185.03 274.506 177.997 274.506 177.997Z" fill="black"/>
<path d="M255.588 182.428C255.94 172.793 252.705 173.285 241.874 169.628C231.044 165.971 232.943 166.041 224.644 163.791C216.346 161.54 212.196 167.166 217.963 168.714C223.73 170.191 228.794 173.004 238.428 174.692C248.063 176.309 243.281 183.905 247.078 186.014C250.876 188.054 255.588 182.428 255.588 182.428Z" fill="black"/>
<path d="M185.402 175.887C195.811 173.707 197.639 177.645 206.5 181.232C215.432 184.748 214.166 184.045 221.902 184.397C229.638 184.678 233.365 189.953 228.794 191.078C224.152 192.203 225.488 191.57 218.456 190.726C211.353 189.812 209.384 190.375 203.124 186.225C196.795 182.146 194.334 179.474 189.692 180.529C185.121 181.654 183.644 188.054 181.253 182.146C178.932 176.239 185.402 175.887 185.402 175.887Z" fill="black"/>
<path d="M150.52 191.992C163.671 186.647 169.157 193.961 175.557 195.509C181.956 197.056 180.69 197.619 189.059 197.337C197.498 196.986 200.593 201.627 194.685 203.385C188.778 205.073 184.84 206.199 178.44 204.651C172.04 203.104 170.212 200.502 162.546 198.884C154.81 197.337 153.966 202.471 148.27 199.658C142.573 196.845 150.52 191.992 150.52 191.992Z" fill="black"/>
<path d="M141.097 234.259C141.448 243.332 147.426 272.658 145.879 278.425C144.402 284.192 139.971 281.379 135.822 288.342C131.673 295.304 135.26 302.618 137.651 307.893C140.042 313.097 148.973 315.348 153.615 312.324C158.256 309.299 159.1 304.798 154.529 305.853C149.958 307.049 147.356 307.541 144.894 303.533C142.503 299.594 141.378 294.39 143.417 291.225C145.527 288.131 148.059 289.467 152.208 282.504C156.358 275.612 149.255 241.714 147.567 233.837C145.949 226.031 141.097 234.259 141.097 234.259Z" fill="black"/>
<path d="M155.935 320.2C158.045 331.945 160.999 388.911 164.374 403.258C167.68 417.604 171.055 413.877 171.266 408.04C171.477 402.203 165.922 328.358 164.374 319.216C162.757 310.073 155.935 320.2 155.935 320.2Z" fill="black"/>
<path d="M261.144 373.368C260.651 386.308 260.581 405.649 261.003 410.853C261.495 416.057 264.59 418.097 266.77 413.033C268.88 407.899 270.638 378.924 269.653 371.75C268.598 364.577 261.144 373.368 261.144 373.368Z" fill="black"/>
<path d="M165.922 411.697C207.836 448.901 252.072 424.708 257.346 421.684C262.691 418.659 262.832 414.791 256.924 415.846C251.087 416.972 233.365 424.004 219.159 423.442C204.953 422.95 180.62 416.128 171.97 406.774C163.25 397.35 165.922 411.697 165.922 411.697Z" fill="black"/>
<path d="M170.352 398.335C92.1494 414.651 56.4236 493.488 52.9776 541.804C48.1954 609.178 47.9141 680.49 116.412 703.839C128.508 707.989 142.784 710.591 159.592 711.435C169.79 711.927 180.479 712.068 191.169 711.927C247.36 711.224 304.887 703.066 309.317 701.026C314.592 698.635 313.396 694.767 306.293 694.486C299.261 694.204 197.991 705.879 161.843 703.769C63.1046 698.072 53.8215 620.079 64.0188 540.327C67.7461 510.719 91.9384 427.45 172.673 404.875C174.642 404.312 179.917 401.288 176.822 398.546C173.658 395.873 170.352 398.335 170.352 398.335Z" fill="black"/>
<path d="M139.69 556.151C129.352 606.224 158.397 632.246 183.222 641.599C208.118 650.953 275.772 639.982 282.945 638.294C290.118 636.676 292.72 628.026 284.914 629.643C277.108 631.261 212.689 640.474 190.395 633.089C168.032 625.775 141.589 607.349 146.793 557.065C146.793 557.065 150.169 553.338 144.402 551.79C138.635 550.314 139.69 556.151 139.69 556.151Z" fill="black"/>
<path d="M290.049 395.171C410.237 430.827 441.603 589.768 440.97 605.311C440.407 620.783 433.797 624.37 432.812 616.563C431.828 608.827 420.435 534.702 378.731 477.455C336.957 420.278 296.027 408.322 288.362 405.439C280.696 402.556 290.049 395.171 290.049 395.171Z" fill="black"/>
<path d="M422.618 647.228C445.825 646.806 500.258 645.048 513.268 643.009C526.278 640.899 690.35 601.655 690.35 601.655C690.35 601.655 706.243 599.968 695.694 606.086C685.146 612.134 532.397 648.916 516.855 650.886C501.242 652.855 439.355 657.215 429.017 655.598C418.75 653.91 422.618 647.228 422.618 647.228Z" fill="black"/>
<path d="M411.014 180.18C385.837 207.678 370.506 248.398 375.921 296.01C381.407 343.552 403.981 391.164 455.742 409.449C507.432 427.734 553.215 420.772 587.534 401.221C621.783 381.74 645.132 349.811 653.571 316.686C662.01 283.562 661.447 245.303 647.593 213.093C633.668 180.883 606.522 154.791 561.021 145.649C473.394 128.137 451.944 153.385 442.802 159.714C433.73 166.044 438.512 170.404 449.834 164.075C461.157 157.675 498.501 135.732 559.403 154.44C589.996 163.934 617.845 178.843 633.879 204.443C649.984 230.113 654.204 266.05 644.78 309.513C635.356 353.046 610.039 381.81 573.469 397.353C536.829 412.895 489.147 414.091 458.203 401.994C427.33 389.827 404.333 358.953 392.237 320.414C380.211 281.874 382.743 236.583 417.203 183.415C417.203 183.415 422.337 178.914 420.719 174.413C419.172 169.982 411.014 180.18 411.014 180.18Z" fill="black"/>
<path d="M592.456 163.723C649.772 221.532 629.166 319.007 574.734 355.718C520.301 392.429 401.802 380.755 393.011 256.274C393.011 256.274 393.433 245.303 387.877 256.696C382.251 268.16 390.549 355.085 466.572 377.379C542.665 399.743 594.496 364.228 618.828 319.288C643.161 274.278 639.645 215.344 623.751 190.799C607.928 166.325 592.456 163.723 592.456 163.723Z" fill="black"/>
<path d="M501.243 317.319C515.027 295.869 542.525 302.761 549.487 306.84C556.449 311.06 558.84 315.702 567.28 314.717C575.719 313.733 573.398 307.192 584.51 303.043C595.692 298.964 606.381 307.192 610.39 304.098C614.398 301.003 613.836 298.401 608.069 296.221C602.302 294.041 586.197 293.478 580.22 297.065C574.312 300.722 570.163 307.684 566.858 308.177C563.623 308.739 559.333 302.128 548.502 298.401C537.672 294.814 531.835 295.236 520.09 297.346C508.416 299.526 503.142 302.55 497.727 308.106C492.311 313.733 501.243 317.319 501.243 317.319Z" fill="black"/>
<path d="M427.892 191.643C453.913 186.861 466.853 202.896 478.316 207.186C489.78 211.476 499.766 204.794 519.317 199.731C538.938 194.667 549.135 198.887 559.965 203.177C570.796 207.537 573.679 199.871 566.014 197.621C558.278 195.371 538.446 190.729 526.842 190.94C515.168 191.151 493.366 203.88 485.63 202.263C477.965 200.715 469.174 193.261 455.812 188.197C442.38 183.204 439.848 183.063 430.073 185.314C420.297 187.494 427.892 191.643 427.892 191.643Z" fill="black"/>
<path d="M300.459 629.574C340.053 624.651 385.132 629.645 400.463 634.779C415.794 639.842 418.185 643.218 421.35 645.258C424.515 647.297 419.311 649.055 419.592 657.425C419.944 665.864 421.772 668.536 418.326 673.6C414.95 678.593 420.576 682.391 414.036 685.345C407.425 688.299 410.731 686.892 395.118 688.861C379.576 690.83 372.333 693.151 354.188 694.347C336.044 695.613 321.065 697.652 316.001 696.105C310.867 694.628 313.047 689.213 319.517 688.228C326.058 687.173 349.617 686.751 358.76 685.767C367.832 684.853 381.123 683.446 391.532 681.266C401.94 679.086 403.839 680.422 408.551 676.132C413.263 671.771 411.364 670.435 411.504 665.864C411.715 661.363 413.685 659.816 415.161 656.018C416.568 652.15 420.366 654.893 415.372 649.548C410.449 644.203 403.979 643.289 396.947 640.405C389.984 637.592 348.984 636.326 338.013 635.201C327.113 634.216 312.344 639.069 304.046 637.451C295.677 635.904 300.459 629.574 300.459 629.574Z" fill="black"/>
<path d="M292.301 630.911C316.352 660.94 307.35 694.205 306.577 698.073C305.733 701.871 315.508 700.324 316.282 696.456C317.126 692.588 315.649 645.398 305.1 635.271C294.481 625.144 292.301 630.911 292.301 630.911Z" fill="black"/>
<path d="M360.941 644.555C389.494 643.078 412.42 652.361 416.851 653.838C421.352 655.245 423.04 661.785 414.741 658.269C406.513 654.682 372.405 649.478 364.598 650.463C356.792 651.447 360.941 644.555 360.941 644.555Z" fill="black"/>
<path d="M373.319 658.902C388.861 658.199 405.036 658.832 412.631 661.716C420.297 664.599 421.985 671.14 415.022 667.624C408.06 664.107 383.446 665.795 375.006 666.076C366.567 666.428 373.319 658.902 373.319 658.902Z" fill="black"/>
<path d="M372.193 671.421C387.806 668.186 405.739 673.39 410.24 674.234C414.741 675.078 415.163 680.212 408.13 678.665C401.098 677.117 392.096 674.797 379.789 675.641C367.481 676.485 372.193 671.421 372.193 671.421Z" fill="black"/>
<path d="M525.224 634.358C529.795 616.495 606.803 462.969 624.103 450.661C639.364 439.901 731.421 425.976 759.692 425.835C763.42 425.765 766.092 425.976 767.288 426.468C769.257 427.312 767.991 433.712 764.545 443.417C750.55 483.223 701.11 579.362 697.805 585.48C693.585 593.076 685.498 603.062 688.522 591.599C690.983 582.104 735.219 491.944 752.238 453.826C756.035 445.316 758.426 439.338 758.708 437.51C759.059 435.4 754.559 434.697 747.034 434.908C717.074 435.752 639.223 451.786 628.604 459.593C615.312 469.439 538.797 624.864 532.116 631.123C525.435 637.312 525.224 634.358 525.224 634.358Z" fill="black"/>
<path d="M402.786 691.746C426.064 691.324 503.634 690.48 510.245 688.089C516.785 685.768 680.154 640.336 686.835 635.483C693.446 630.49 688.734 626.763 678.255 630.279C667.777 633.725 518.403 678.102 509.19 680.353C500.118 682.533 430.565 682.814 413.686 684.713C396.808 686.682 402.786 691.746 402.786 691.746Z" fill="black"/>
<path d="M514.394 646.946C513.761 663.684 511.44 690.759 513.831 696.034C516.222 701.238 521.637 694.979 521.919 687.313C522.2 679.507 523.255 652.432 523.536 644.696C523.817 636.89 514.394 646.946 514.394 646.946Z" fill="black"/>
<path d="M411.365 635.834C430.354 629.434 475.081 609.813 487.459 607.703C499.836 605.594 552.159 606.297 560.528 607.352C568.897 608.266 557.645 615.58 553.144 615.439C548.573 615.228 495.335 613.541 488.162 615.158C480.989 616.846 425.501 638.929 418.961 640.616C412.42 642.304 411.365 635.834 411.365 635.834Z" fill="black"/>
<path d="M205.727 436.523C218.737 456.777 234.842 451.854 237.584 466.201C240.257 480.548 247.5 611.359 251.017 619.306C254.603 627.182 289.415 630.488 299.331 623.736C309.317 616.985 256.784 469.507 255.94 459.169C255.025 448.76 265.293 434.905 260.933 429.631C256.643 424.286 244.547 434.765 238.71 435.187C232.943 435.609 201.437 429.912 205.727 436.523Z" fill="#FFB088"/>
<path d="M414.53 361.556C454.546 429 544.564 409.238 571.007 393.414C597.52 377.661 614.891 361.485 628.886 334.901C642.81 308.247 653.781 259.58 646.116 255.36C638.52 251.211 621.431 326.814 606.381 348.193C591.331 369.643 576.844 376.817 550.682 383.568C524.591 390.32 517.981 393.977 491.045 389.054C464.04 384.131 458.906 382.654 437.527 367.604C416.148 352.554 414.53 361.556 414.53 361.556Z" fill="#E3D9FF"/>
<path d="M192.435 282.012C180.339 288.764 187.09 301.704 194.474 299.242C201.788 296.781 203.898 288.764 201.367 284.122C198.835 279.48 192.435 282.012 192.435 282.012Z" fill="#FF737B"/>
</svg>
