<svg width="342" height="332" viewBox="0 0 342 332" fill="none" xmlns="http://www.w3.org/2000/svg">
<path d="M337 166C337 254.779 262.82 327 171 327C79.1798 327 5 254.779 5 166C5 77.221 79.1798 5 171 5C262.82 5 337 77.221 337 166Z" fill="#E3D9FF" fill-opacity="0.5" stroke="black" stroke-width="10"/>
<path d="M157.5 192C157.5 153.085 189.085 121.5 228 121.5C266.915 121.5 298.5 153.085 298.5 192C298.5 230.915 266.915 262.5 228 262.5C189.085 262.5 157.5 230.915 157.5 192ZM208.5 165.75V218.25C208.5 224.964 216.209 228.997 221.707 224.845C221.71 224.842 221.714 224.84 221.717 224.837L256.704 198.616C256.708 198.613 256.712 198.61 256.716 198.607C261.153 195.308 261.153 188.692 256.716 185.393C256.712 185.39 256.708 185.387 256.704 185.384L221.717 159.163C221.714 159.16 221.71 159.157 221.706 159.155C216.209 155.003 208.5 159.036 208.5 165.75Z" fill="#50FF92" stroke="black" stroke-width="9"/>
</svg>
