<svg width="749" height="172" viewBox="0 0 749 172" fill="none" xmlns="http://www.w3.org/2000/svg">
<path d="M456.554 141.2C455.593 141.07 454.747 141.005 454.015 141.005C451.345 141.005 449.596 141.908 448.766 143.715V161H441.71V134.584H448.375L448.57 137.733C449.986 135.308 451.948 134.096 454.454 134.096C455.235 134.096 455.968 134.201 456.651 134.413L456.554 141.2Z" fill="#27AE60"/>
<path d="M474.547 161C474.221 160.365 473.985 159.576 473.839 158.632C472.13 160.536 469.908 161.488 467.174 161.488C464.586 161.488 462.438 160.74 460.729 159.242C459.036 157.745 458.189 155.857 458.189 153.578C458.189 150.779 459.223 148.63 461.29 147.133C463.373 145.635 466.376 144.879 470.299 144.862H473.546V143.349C473.546 142.128 473.229 141.151 472.594 140.419C471.975 139.687 470.991 139.32 469.64 139.32C468.451 139.32 467.516 139.605 466.832 140.175C466.165 140.744 465.831 141.526 465.831 142.519H458.775C458.775 140.989 459.247 139.573 460.191 138.271C461.135 136.968 462.47 135.951 464.195 135.219C465.921 134.47 467.857 134.096 470.006 134.096C473.261 134.096 475.841 134.918 477.745 136.562C479.666 138.189 480.626 140.484 480.626 143.446V154.896C480.642 157.403 480.992 159.299 481.676 160.585V161H474.547ZM468.712 156.093C469.754 156.093 470.714 155.865 471.593 155.409C472.472 154.937 473.123 154.311 473.546 153.529V148.988H470.909C467.377 148.988 465.497 150.209 465.27 152.65L465.245 153.065C465.245 153.944 465.554 154.669 466.173 155.238C466.791 155.808 467.638 156.093 468.712 156.093Z" fill="#27AE60"/>
<path d="M509.825 148.036C509.825 152.105 508.897 155.368 507.042 157.826C505.203 160.268 502.713 161.488 499.571 161.488C496.902 161.488 494.745 160.561 493.102 158.705V171.156H486.046V134.584H492.589L492.833 137.172C494.542 135.121 496.772 134.096 499.522 134.096C502.778 134.096 505.309 135.3 507.115 137.709C508.922 140.118 509.825 143.438 509.825 147.67V148.036ZM502.77 147.523C502.77 145.066 502.33 143.17 501.451 141.835C500.589 140.5 499.327 139.833 497.667 139.833C495.453 139.833 493.932 140.679 493.102 142.372V153.188C493.964 154.929 495.502 155.8 497.716 155.8C501.085 155.8 502.77 153.041 502.77 147.523Z" fill="#27AE60"/>
<path d="M521.666 161H514.586V134.584H521.666V161ZM514.171 127.748C514.171 126.69 514.521 125.819 515.221 125.136C515.937 124.452 516.905 124.11 518.126 124.11C519.33 124.11 520.291 124.452 521.007 125.136C521.723 125.819 522.081 126.69 522.081 127.748C522.081 128.822 521.715 129.701 520.982 130.385C520.266 131.068 519.314 131.41 518.126 131.41C516.938 131.41 515.978 131.068 515.245 130.385C514.529 129.701 514.171 128.822 514.171 127.748Z" fill="#27AE60"/>
<path d="M526.402 147.597C526.402 143.479 527.322 140.199 529.161 137.758C531.017 135.316 533.548 134.096 536.754 134.096C539.326 134.096 541.45 135.056 543.126 136.977V123.5H550.206V161H543.834L543.492 158.192C541.734 160.39 539.472 161.488 536.705 161.488C533.596 161.488 531.098 160.268 529.21 157.826C527.338 155.368 526.402 151.959 526.402 147.597ZM533.458 148.109C533.458 150.583 533.889 152.479 534.752 153.798C535.615 155.116 536.868 155.775 538.512 155.775C540.693 155.775 542.231 154.856 543.126 153.017V142.592C542.247 140.753 540.725 139.833 538.561 139.833C535.159 139.833 533.458 142.592 533.458 148.109Z" fill="#27AE60"/>
<path d="M563.121 161H556.041V134.584H563.121V161ZM555.626 127.748C555.626 126.69 555.976 125.819 556.676 125.136C557.392 124.452 558.36 124.11 559.581 124.11C560.785 124.11 561.746 124.452 562.462 125.136C563.178 125.819 563.536 126.69 563.536 127.748C563.536 128.822 563.17 129.701 562.438 130.385C561.721 131.068 560.769 131.41 559.581 131.41C558.393 131.41 557.433 131.068 556.7 130.385C555.984 129.701 555.626 128.822 555.626 127.748Z" fill="#27AE60"/>
<path d="M575.45 134.584L575.67 137.636C577.558 135.276 580.089 134.096 583.263 134.096C586.062 134.096 588.146 134.918 589.513 136.562C590.88 138.205 591.58 140.663 591.612 143.935V161H584.557V144.105C584.557 142.608 584.231 141.526 583.58 140.858C582.929 140.175 581.847 139.833 580.333 139.833C578.347 139.833 576.858 140.679 575.865 142.372V161H568.81V134.584H575.45Z" fill="#27AE60"/>
<path d="M603.868 137.465C605.74 135.219 608.092 134.096 610.924 134.096C616.653 134.096 619.558 137.424 619.64 144.081V161H612.584V144.276C612.584 142.763 612.258 141.648 611.607 140.932C610.956 140.199 609.874 139.833 608.36 139.833C606.293 139.833 604.796 140.631 603.868 142.226V161H596.812V123.5H603.868V137.465Z" fill="#27AE60"/>
<path d="M623.863 147.548C623.863 144.927 624.368 142.592 625.377 140.541C626.386 138.49 627.835 136.903 629.723 135.78C631.627 134.657 633.832 134.096 636.339 134.096C639.903 134.096 642.809 135.186 645.055 137.367C647.317 139.548 648.578 142.51 648.839 146.254L648.888 148.061C648.888 152.113 647.757 155.368 645.494 157.826C643.232 160.268 640.196 161.488 636.388 161.488C632.579 161.488 629.535 160.268 627.257 157.826C624.994 155.385 623.863 152.064 623.863 147.865V147.548ZM630.919 148.061C630.919 150.567 631.391 152.488 632.335 153.822C633.279 155.141 634.63 155.8 636.388 155.8C638.097 155.8 639.431 155.149 640.392 153.847C641.352 152.528 641.832 150.429 641.832 147.548C641.832 145.09 641.352 143.186 640.392 141.835C639.431 140.484 638.08 139.809 636.339 139.809C634.614 139.809 633.279 140.484 632.335 141.835C631.391 143.17 630.919 145.245 630.919 148.061Z" fill="#27AE60"/>
<path d="M667.613 161V139.76H663.683V134.584H667.613V132.338C667.613 129.376 668.46 127.081 670.152 125.453C671.861 123.809 674.246 122.987 677.306 122.987C678.282 122.987 679.479 123.15 680.895 123.476L680.821 128.944C680.235 128.798 679.519 128.725 678.673 128.725C676.02 128.725 674.693 129.97 674.693 132.46V134.584H679.942V139.76H674.693V161H667.613Z" fill="#27AE60"/>
<path d="M698.912 161C698.587 160.365 698.351 159.576 698.204 158.632C696.495 160.536 694.273 161.488 691.539 161.488C688.951 161.488 686.803 160.74 685.094 159.242C683.401 157.745 682.555 155.857 682.555 153.578C682.555 150.779 683.588 148.63 685.655 147.133C687.739 145.635 690.742 144.879 694.664 144.862H697.911V143.349C697.911 142.128 697.594 141.151 696.959 140.419C696.34 139.687 695.356 139.32 694.005 139.32C692.817 139.32 691.881 139.605 691.197 140.175C690.53 140.744 690.196 141.526 690.196 142.519H683.141C683.141 140.989 683.613 139.573 684.557 138.271C685.501 136.968 686.835 135.951 688.561 135.219C690.286 134.47 692.223 134.096 694.371 134.096C697.626 134.096 700.206 134.918 702.11 136.562C704.031 138.189 704.991 140.484 704.991 143.446V154.896C705.007 157.403 705.357 159.299 706.041 160.585V161H698.912ZM693.077 156.093C694.119 156.093 695.079 155.865 695.958 155.409C696.837 154.937 697.488 154.311 697.911 153.529V148.988H695.274C691.743 148.988 689.863 150.209 689.635 152.65L689.61 153.065C689.61 153.944 689.92 154.669 690.538 155.238C691.157 155.808 692.003 156.093 693.077 156.093Z" fill="#27AE60"/>
<path d="M718.517 155.312H731.432V161H709.508V156.703L721.935 140.297H709.874V134.584H731.041V138.759L718.517 155.312Z" fill="#27AE60"/>
<path d="M743.028 150.087H737.169L736.339 125.453H743.858L743.028 150.087ZM740.099 153.944C741.287 153.944 742.239 154.294 742.955 154.994C743.688 155.694 744.054 156.589 744.054 157.68C744.054 158.754 743.688 159.641 742.955 160.341C742.239 161.041 741.287 161.391 740.099 161.391C738.927 161.391 737.975 161.041 737.242 160.341C736.526 159.641 736.168 158.754 736.168 157.68C736.168 156.605 736.526 155.718 737.242 155.019C737.975 154.302 738.927 153.944 740.099 153.944Z" fill="#27AE60"/>
<path d="M52.9223 110.8C45.1223 110.8 37.8223 109.45 31.0223 106.75C24.3223 104.05 18.9723 100.4 14.9723 95.8C11.0723 91.5 7.62225 85.3 4.62225 77.2C1.62225 69 0.122253 61.8 0.122253 55.6C0.122253 46.1 2.57225 37.1 7.47225 28.6C12.4723 20.1 19.1223 13.25 27.4223 8.05C35.7223 2.85 44.5723 0.25 53.9723 0.25C59.8723 0.25 65.6723 1.35 71.3723 3.55C75.7723 5.35 79.3723 7.45 82.1723 9.85C85.0723 12.25 88.7223 16.15 93.1223 21.55C95.4223 24.25 96.5723 26.75 96.5723 29.05C96.5723 31.75 95.4723 34.15 93.2723 36.25C91.1723 38.25 88.7723 39.25 86.0723 39.25C83.1723 39.25 80.7223 38.05 78.7223 35.65L72.1223 27.85C70.1223 25.35 67.4723 23.5 64.1723 22.3C60.8723 21.1 57.5223 20.5 54.1223 20.5C48.4223 20.5 42.9723 22.15 37.7723 25.45C32.6723 28.65 28.5223 32.95 25.3223 38.35C22.2223 43.65 20.6723 49.3 20.6723 55.3C20.6723 60.2 21.6723 65.15 23.6723 70.15C25.6723 75.05 27.9723 79.1 30.5723 82.3C32.5723 84.7 35.9723 86.7 40.7723 88.3C45.5723 89.9 50.6223 90.7 55.9223 90.7C59.9223 90.7 63.3223 90.15 66.1223 89.05C68.9223 87.95 71.0222 86.45 72.4222 84.55C73.4223 83.15 74.5223 80.7 75.7223 77.2L78.1223 71.2C80.1223 67.2 83.0723 65.2 86.9723 65.2C89.6723 65.2 92.0723 66.2 94.1723 68.2C96.3723 70.1 97.4723 72.45 97.4723 75.25C97.4723 76.45 97.1723 77.8 96.5723 79.3L95.2223 83.05C94.2223 85.75 93.2223 88.15 92.2223 90.25C91.3223 92.25 90.1223 94.35 88.6223 96.55C84.9223 101.65 79.8723 105.3 73.4723 107.5C67.0723 109.7 60.2223 110.8 52.9223 110.8Z" fill="#8E44AD"/>
<path d="M166.916 110.5C161.216 108.3 158.366 104.65 158.366 99.55C152.666 107.55 144.566 110.7 134.066 109C129.666 107.8 125.816 106 122.516 103.6C119.316 101.2 116.816 98.35 115.016 95.05C113.216 91.75 111.866 88.5 110.966 85.3C110.066 82 109.466 78.5 109.166 74.8C108.866 72.8 108.866 69.5 109.166 64.9C109.466 60.3 109.716 56.9 109.916 54.7C110.116 52.5 110.466 49.5 110.966 45.7C111.466 41.8 111.766 39.4 111.866 38.5C112.266 35.7 113.516 33.45 115.616 31.75C117.816 30.05 120.266 29.4 122.966 29.8C125.766 30.1 128.016 31.35 129.716 33.55C131.416 35.65 132.116 38.1 131.816 40.9L130.766 48.7C130.266 52.4 129.916 55.2 129.716 57.1C129.516 58.9 129.266 61.7 128.966 65.5C128.766 69.2 128.816 71.85 129.116 73.45C129.516 78.35 130.466 82.1 131.966 84.7C133.566 87.2 136.016 88.85 139.316 89.65C141.516 90.25 143.966 90.1 146.666 89.2C149.366 88.2 152.066 85.55 154.766 81.25C155.366 80.65 155.966 80.15 156.566 79.75C156.666 65.05 156.616 51.9 156.416 40.3C156.416 37.3 157.416 34.8 159.416 32.8C161.416 30.7 163.866 29.65 166.766 29.65C169.766 29.55 172.266 30.5 174.266 32.5C176.366 34.5 177.466 37 177.566 40C177.766 54.8 177.766 74.85 177.566 100.15C177.566 102.95 176.516 105.4 174.416 107.5C172.316 109.5 169.816 110.5 166.916 110.5Z" fill="#8E44AD"/>
<path d="M197.598 105.85C195.498 103.85 194.448 101.45 194.448 98.65C194.348 88.75 194.298 80.95 194.298 75.25C194.098 74.05 194.098 72.9 194.298 71.8C194.198 60.7 194.148 50.65 194.148 41.65C194.148 37.75 195.148 34.8 197.148 32.8C199.248 30.7 201.748 29.65 204.648 29.65C206.748 29.65 208.648 30.25 210.348 31.45C212.148 32.55 213.448 34.55 214.248 37.45C218.248 35.25 224.248 32.75 232.248 29.95C234.848 29.05 237.348 29.2 239.748 30.4C242.248 31.5 243.948 33.35 244.848 35.95C245.748 38.55 245.598 41.1 244.398 43.6C243.298 46 241.448 47.65 238.848 48.55C229.648 51.75 221.798 54.9 215.298 58C214.898 61.2 214.848 65.75 215.148 71.65C215.248 77.95 215.348 86.85 215.448 98.35C215.448 101.25 214.398 103.75 212.298 105.85C210.298 107.95 207.848 109 204.948 109C202.148 109 199.698 107.95 197.598 105.85Z" fill="#8E44AD"/>
<path d="M257.511 105.85C255.411 103.85 254.361 101.45 254.361 98.65C254.261 88.75 254.211 80.95 254.211 75.25C254.011 74.05 254.011 72.9 254.211 71.8C254.111 60.7 254.061 50.65 254.061 41.65C254.061 37.75 255.061 34.8 257.061 32.8C259.161 30.7 261.661 29.65 264.561 29.65C266.661 29.65 268.561 30.25 270.261 31.45C272.061 32.55 273.361 34.55 274.161 37.45C278.161 35.25 284.161 32.75 292.161 29.95C294.761 29.05 297.261 29.2 299.661 30.4C302.161 31.5 303.861 33.35 304.761 35.95C305.661 38.55 305.511 41.1 304.311 43.6C303.211 46 301.361 47.65 298.761 48.55C289.561 51.75 281.711 54.9 275.211 58C274.811 61.2 274.761 65.75 275.061 71.65C275.161 77.95 275.261 86.85 275.361 98.35C275.361 101.25 274.311 103.75 272.211 105.85C270.211 107.95 267.761 109 264.861 109C262.061 109 259.611 107.95 257.511 105.85Z" fill="#8E44AD"/>
<path d="M313.223 98.8C312.923 77.6 313.073 57.75 313.673 39.25C313.773 36.35 314.873 33.95 316.973 32.05C319.173 30.05 321.723 29.1 324.623 29.2C327.523 29.3 329.923 30.45 331.823 32.65C333.823 34.75 334.773 37.25 334.673 40.15C334.073 58.85 333.923 78.3 334.223 98.5C334.223 101.4 333.223 103.9 331.223 106C329.223 108 326.773 109 323.873 109C320.973 109.1 318.473 108.15 316.373 106.15C314.373 104.15 313.323 101.7 313.223 98.8ZM331.073 3.55C333.173 5.55 334.223 8.1 334.223 11.2C334.223 14.2 333.173 16.75 331.073 18.85C328.973 20.95 326.423 22 323.423 22C320.423 22 317.873 20.95 315.773 18.85C313.673 16.75 312.623 14.2 312.623 11.2C312.623 8.1 313.673 5.5 315.773 3.4C317.873 1.3 320.423 0.25 323.423 0.25C326.423 0.25 328.973 1.35 331.073 3.55Z" fill="#8E44AD"/>
<path d="M398.59 108.4C393.99 110 389.49 110.6 385.09 110.2C380.69 109.8 376.44 108.8 372.34 107.2C365.94 104.6 360.49 100.35 355.99 94.45C351.49 88.55 348.94 82.05 348.34 74.95C347.94 69.05 348.89 63.05 351.19 56.95C353.59 50.75 356.94 45.45 361.24 41.05C364.34 37.85 367.79 35.3 371.59 33.4C375.49 31.4 379.89 30.15 384.79 29.65C389.69 29.15 394.64 30 399.64 32.2C402.34 33.3 405.19 35.1 408.19 37.6C408.39 37.8 409.04 38.4 410.14 39.4L412.84 41.65C415.14 43.45 416.44 45.75 416.74 48.55C417.14 51.25 416.44 53.75 414.64 56.05C412.84 58.25 410.49 59.55 407.59 59.95C404.79 60.25 402.24 59.5 399.94 57.7C399.74 57.6 397.84 56 394.24 52.9C393.04 51.9 392.14 51.25 391.54 50.95C386.14 48.75 381.14 50.1 376.54 55C374.14 57.5 372.24 60.45 370.84 63.85C369.54 67.25 369.04 70.45 369.34 73.45C369.54 76.25 370.64 79.15 372.64 82.15C374.64 85.05 377.29 87.15 380.59 88.45C384.09 89.75 387.04 90.25 389.44 89.95C391.94 89.55 393.94 88.6 395.44 87.1C395.94 86.6 396.54 85.55 397.24 83.95C399.34 79.35 400.44 76.95 400.54 76.75C401.84 74.25 403.84 72.6 406.54 71.8C409.34 70.9 412.04 71.1 414.64 72.4C417.24 73.6 418.94 75.55 419.74 78.25C420.64 80.95 420.44 83.55 419.14 86.05C418.84 86.65 418.54 87.3 418.24 88C417.94 88.6 417.64 89.3 417.34 90.1C417.04 90.9 416.74 91.55 416.44 92.05C414.84 95.85 412.94 98.85 410.74 101.05C407.34 104.55 403.29 107 398.59 108.4Z" fill="#8E44AD"/>
<path d="M489.621 110.5C483.921 108.3 481.071 104.65 481.071 99.55C475.371 107.55 467.271 110.7 456.771 109C452.371 107.8 448.521 106 445.221 103.6C442.021 101.2 439.521 98.35 437.721 95.05C435.921 91.75 434.571 88.5 433.671 85.3C432.771 82 432.171 78.5 431.871 74.8C431.571 72.8 431.571 69.5 431.871 64.9C432.171 60.3 432.421 56.9 432.621 54.7C432.821 52.5 433.171 49.5 433.671 45.7C434.171 41.8 434.471 39.4 434.571 38.5C434.971 35.7 436.221 33.45 438.321 31.75C440.521 30.05 442.971 29.4 445.671 29.8C448.471 30.1 450.721 31.35 452.421 33.55C454.121 35.65 454.821 38.1 454.521 40.9L453.471 48.7C452.971 52.4 452.621 55.2 452.421 57.1C452.221 58.9 451.971 61.7 451.671 65.5C451.471 69.2 451.521 71.85 451.821 73.45C452.221 78.35 453.171 82.1 454.671 84.7C456.271 87.2 458.721 88.85 462.021 89.65C464.221 90.25 466.671 90.1 469.371 89.2C472.071 88.2 474.771 85.55 477.471 81.25C478.071 80.65 478.671 80.15 479.271 79.75C479.371 65.05 479.321 51.9 479.121 40.3C479.121 37.3 480.121 34.8 482.121 32.8C484.121 30.7 486.571 29.65 489.471 29.65C492.471 29.55 494.971 30.5 496.971 32.5C499.071 34.5 500.171 37 500.271 40C500.471 54.8 500.471 74.85 500.271 100.15C500.271 102.95 499.221 105.4 497.121 107.5C495.021 109.5 492.521 110.5 489.621 110.5Z" fill="#8E44AD"/>
<path d="M537.854 100.45C537.754 103.35 536.654 105.8 534.554 107.8C532.554 109.8 530.103 110.75 527.203 110.65C524.303 110.65 521.854 109.65 519.854 107.65C517.854 105.55 516.854 103.05 516.854 100.15C517.054 100.15 517.104 85.75 517.004 56.95L516.854 11.05C516.854 8.15 517.854 5.7 519.854 3.7C521.954 1.6 524.454 0.549995 527.354 0.549995C530.254 0.549995 532.703 1.6 534.703 3.7C536.803 5.7 537.854 8.15 537.854 11.05C537.854 19.05 537.854 29 537.854 40.9C537.954 52.8 538.004 63.6 538.004 73.3C538.004 82.9 537.954 91.95 537.854 100.45Z" fill="#8E44AD"/>
<path d="M611.35 110.5C605.65 108.3 602.8 104.65 602.8 99.55C597.1 107.55 589 110.7 578.5 109C574.1 107.8 570.25 106 566.95 103.6C563.75 101.2 561.25 98.35 559.45 95.05C557.65 91.75 556.3 88.5 555.4 85.3C554.5 82 553.9 78.5 553.6 74.8C553.3 72.8 553.3 69.5 553.6 64.9C553.9 60.3 554.15 56.9 554.35 54.7C554.55 52.5 554.9 49.5 555.4 45.7C555.9 41.8 556.2 39.4 556.3 38.5C556.7 35.7 557.95 33.45 560.05 31.75C562.25 30.05 564.7 29.4 567.4 29.8C570.2 30.1 572.45 31.35 574.15 33.55C575.85 35.65 576.55 38.1 576.25 40.9L575.2 48.7C574.7 52.4 574.35 55.2 574.15 57.1C573.95 58.9 573.7 61.7 573.4 65.5C573.2 69.2 573.25 71.85 573.55 73.45C573.95 78.35 574.9 82.1 576.4 84.7C578 87.2 580.45 88.85 583.75 89.65C585.95 90.25 588.4 90.1 591.1 89.2C593.8 88.2 596.5 85.55 599.2 81.25C599.8 80.65 600.4 80.15 601 79.75C601.1 65.05 601.05 51.9 600.85 40.3C600.85 37.3 601.85 34.8 603.85 32.8C605.85 30.7 608.3 29.65 611.2 29.65C614.2 29.55 616.7 30.5 618.7 32.5C620.8 34.5 621.9 37 622 40C622.2 54.8 622.2 74.85 622 100.15C622 102.95 620.95 105.4 618.85 107.5C616.75 109.5 614.25 110.5 611.35 110.5Z" fill="#8E44AD"/>
<path d="M748.232 98.95C748.132 101.85 747.032 104.3 744.932 106.3C742.832 108.3 740.332 109.25 737.432 109.15C734.532 109.05 732.082 107.95 730.082 105.85C728.082 103.75 727.132 101.25 727.232 98.35C727.432 91.85 727.332 72.65 726.932 40.75C719.532 50.05 712.232 60 705.032 70.6C703.332 73 701.082 74.5 698.282 75.1C695.482 75.6 692.882 75.05 690.482 73.45C690.182 73.25 689.932 73.05 689.732 72.85C688.632 72.15 687.682 71.3 686.882 70.3L663.782 41.2C663.882 41.4 663.882 51 663.782 70C663.782 88.9 663.782 98.4 663.782 98.5C663.782 101.4 662.732 103.9 660.632 106C658.632 108 656.182 109 653.282 109C650.382 109 647.882 108 645.782 106C643.782 103.9 642.782 101.4 642.782 98.5C642.782 94.3 642.782 87.25 642.782 77.35C642.882 67.45 642.932 59.8 642.932 54.4C642.932 49 642.832 42.3 642.632 34.3C642.432 27.2 642.082 19.85 641.582 12.25C641.382 9.35 642.232 6.8 644.132 4.6C646.032 2.4 648.432 1.2 651.332 1C652.832 0.900001 654.232 1.1 655.532 1.6C658.332 2 660.582 3.35 662.282 5.65L695.582 47.5C706.382 32.5 717.382 19 728.582 7C730.682 3.4 733.782 1.65 737.882 1.75C740.782 1.85 743.232 2.95 745.232 5.05C747.232 7.15 748.182 9.65 748.082 12.55C747.782 22.05 747.782 36.6 748.082 56.2C748.382 75.7 748.432 89.95 748.232 98.95Z" fill="#8E44AD"/>
</svg>
