<svg width="150" height="150" viewBox="0 0 150 150" fill="none" xmlns="http://www.w3.org/2000/svg">
<path d="M4.5 75C4.5 36.0853 36.0853 4.5 75 4.5C113.915 4.5 145.5 36.0853 145.5 75C145.5 113.915 113.915 145.5 75 145.5C36.0853 145.5 4.5 113.915 4.5 75ZM55.5 48.75V101.25C55.5 107.964 63.2091 111.997 68.7069 107.845C68.7104 107.842 68.7139 107.84 68.7174 107.837L103.704 81.616C103.708 81.6129 103.712 81.6098 103.716 81.6067C108.153 78.3076 108.153 71.6924 103.716 68.3933C103.712 68.3902 103.708 68.3871 103.704 68.384L68.7174 42.1631C68.7137 42.1603 68.71 42.1575 68.7062 42.1547C63.2085 38.003 55.5 42.0364 55.5 48.75Z" fill="#50FF92" stroke="black" stroke-width="9"/>
</svg>
