<svg width="306" height="69" viewBox="0 0 306 69" fill="none" xmlns="http://www.w3.org/2000/svg">
<path d="M188.057 56.6801C187.673 56.628 187.334 56.6019 187.042 56.6019C185.974 56.6019 185.274 56.9633 184.942 57.6859V64.6H182.12V54.0336H184.786L184.864 55.2933C185.43 54.3233 186.215 53.8383 187.217 53.8383C187.53 53.8383 187.823 53.8806 188.096 53.9652L188.057 56.6801Z" fill="#27AE60"/>
<path d="M195.254 64.6C195.124 64.3461 195.03 64.0303 194.971 63.6527C194.288 64.4144 193.399 64.7953 192.305 64.7953C191.27 64.7953 190.411 64.4958 189.727 63.8969C189.05 63.2979 188.711 62.5427 188.711 61.6312C188.711 60.5114 189.125 59.6521 189.952 59.0531C190.785 58.4541 191.986 58.1514 193.555 58.1449H194.854V57.5394C194.854 57.0511 194.727 56.6605 194.473 56.3676C194.226 56.0746 193.832 55.9281 193.292 55.9281C192.816 55.9281 192.442 56.042 192.168 56.2699C191.902 56.4978 191.768 56.8103 191.768 57.2074H188.946C188.946 56.5954 189.135 56.029 189.512 55.5082C189.89 54.9873 190.424 54.5804 191.114 54.2875C191.804 53.988 192.579 53.8383 193.438 53.8383C194.74 53.8383 195.772 54.167 196.534 54.8246C197.302 55.4756 197.686 56.3936 197.686 57.5785V62.1586C197.693 63.1612 197.833 63.9196 198.106 64.434V64.6H195.254ZM192.92 62.6371C193.337 62.6371 193.721 62.5459 194.073 62.3636C194.424 62.1748 194.685 61.9242 194.854 61.6117V59.7953H193.799C192.387 59.7953 191.635 60.2836 191.543 61.2601L191.534 61.4261C191.534 61.7777 191.657 62.0674 191.905 62.2953C192.152 62.5232 192.491 62.6371 192.92 62.6371Z" fill="#27AE60"/>
<path d="M209.366 59.4144C209.366 61.042 208.995 62.3474 208.252 63.3304C207.517 64.307 206.521 64.7953 205.264 64.7953C204.196 64.7953 203.334 64.4242 202.676 63.682V68.6625H199.854V54.0336H202.471L202.569 55.0687C203.252 54.2484 204.144 53.8383 205.245 53.8383C206.547 53.8383 207.559 54.32 208.282 55.2836C209.004 56.2471 209.366 57.5752 209.366 59.2679V59.4144ZM206.543 59.2094C206.543 58.2263 206.368 57.4678 206.016 56.934C205.671 56.4001 205.167 56.1332 204.502 56.1332C203.617 56.1332 203.008 56.4717 202.676 57.1488V61.475C203.021 62.1716 203.637 62.5199 204.522 62.5199C205.87 62.5199 206.543 61.4164 206.543 59.2094Z" fill="#27AE60"/>
<path d="M214.102 64.6H211.27V54.0336H214.102V64.6ZM211.104 51.2992C211.104 50.876 211.244 50.5277 211.524 50.2543C211.81 49.9808 212.198 49.8441 212.686 49.8441C213.168 49.8441 213.552 49.9808 213.838 50.2543C214.125 50.5277 214.268 50.876 214.268 51.2992C214.268 51.7289 214.122 52.0804 213.829 52.3539C213.542 52.6273 213.161 52.764 212.686 52.764C212.211 52.764 211.827 52.6273 211.534 52.3539C211.247 52.0804 211.104 51.7289 211.104 51.2992Z" fill="#27AE60"/>
<path d="M215.997 59.2386C215.997 57.5915 216.364 56.2797 217.1 55.3031C217.842 54.3265 218.855 53.8383 220.137 53.8383C221.166 53.8383 222.015 54.2224 222.686 54.9906V49.6H225.518V64.6H222.969L222.833 63.4769C222.129 64.3558 221.224 64.7953 220.118 64.7953C218.874 64.7953 217.875 64.307 217.12 63.3304C216.371 62.3474 215.997 60.9834 215.997 59.2386ZM218.819 59.4437C218.819 60.4333 218.991 61.1918 219.336 61.7191C219.681 62.2465 220.183 62.5101 220.84 62.5101C221.713 62.5101 222.328 62.1423 222.686 61.4066V57.2367C222.334 56.501 221.726 56.1332 220.86 56.1332C219.499 56.1332 218.819 57.2367 218.819 59.4437Z" fill="#27AE60"/>
<path d="M230.684 64.6H227.852V54.0336H230.684V64.6ZM227.686 51.2992C227.686 50.876 227.826 50.5277 228.106 50.2543C228.392 49.9808 228.78 49.8441 229.268 49.8441C229.75 49.8441 230.134 49.9808 230.42 50.2543C230.707 50.5277 230.85 50.876 230.85 51.2992C230.85 51.7289 230.704 52.0804 230.411 52.3539C230.124 52.6273 229.743 52.764 229.268 52.764C228.793 52.764 228.409 52.6273 228.116 52.3539C227.829 52.0804 227.686 51.7289 227.686 51.2992Z" fill="#27AE60"/>
<path d="M235.616 54.0336L235.704 55.2543C236.459 54.3103 237.471 53.8383 238.741 53.8383C239.861 53.8383 240.694 54.167 241.241 54.8246C241.788 55.4821 242.068 56.4652 242.081 57.7738V64.6H239.258V57.8422C239.258 57.2432 239.128 56.8103 238.868 56.5433C238.607 56.2699 238.174 56.1332 237.569 56.1332C236.775 56.1332 236.179 56.4717 235.782 57.1488V64.6H232.959V54.0336H235.616Z" fill="#27AE60"/>
<path d="M246.983 55.1859C247.732 54.2875 248.672 53.8383 249.805 53.8383C252.097 53.8383 253.259 55.1696 253.292 57.8324V64.6H250.469V57.9105C250.469 57.3051 250.339 56.8591 250.079 56.5726C249.818 56.2797 249.385 56.1332 248.78 56.1332C247.953 56.1332 247.354 56.4522 246.983 57.0902V64.6H244.161V49.6H246.983V55.1859Z" fill="#27AE60"/>
<path d="M254.981 59.2191C254.981 58.1709 255.183 57.2367 255.586 56.4164C255.99 55.5961 256.569 54.9613 257.325 54.5121C258.086 54.0629 258.969 53.8383 259.971 53.8383C261.397 53.8383 262.559 54.2745 263.458 55.1469C264.362 56.0192 264.867 57.2041 264.971 58.7015L264.991 59.4242C264.991 61.0453 264.538 62.3474 263.633 63.3304C262.728 64.307 261.514 64.7953 259.991 64.7953C258.467 64.7953 257.25 64.307 256.338 63.3304C255.433 62.3539 254.981 61.0258 254.981 59.3461V59.2191ZM257.803 59.4242C257.803 60.4268 257.992 61.195 258.37 61.7289C258.747 62.2562 259.288 62.5199 259.991 62.5199C260.674 62.5199 261.208 62.2595 261.592 61.7386C261.976 61.2113 262.168 60.3715 262.168 59.2191C262.168 58.236 261.976 57.4743 261.592 56.934C261.208 56.3936 260.668 56.1234 259.971 56.1234C259.281 56.1234 258.747 56.3936 258.37 56.934C257.992 57.4678 257.803 58.2979 257.803 59.4242Z" fill="#27AE60"/>
<path d="M272.481 64.6V56.1039H270.909V54.0336H272.481V53.1351C272.481 51.9502 272.819 51.0323 273.497 50.3812C274.18 49.7237 275.134 49.3949 276.358 49.3949C276.749 49.3949 277.227 49.46 277.793 49.5902L277.764 51.7777C277.53 51.7191 277.243 51.6898 276.905 51.6898C275.844 51.6898 275.313 52.1879 275.313 53.184V54.0336H277.413V56.1039H275.313V64.6H272.481Z" fill="#27AE60"/>
<path d="M285 64.6C284.87 64.3461 284.776 64.0303 284.717 63.6527C284.034 64.4144 283.145 64.7953 282.051 64.7953C281.016 64.7953 280.157 64.4958 279.473 63.8969C278.796 63.2979 278.458 62.5427 278.458 61.6312C278.458 60.5114 278.871 59.6521 279.698 59.0531C280.531 58.4541 281.732 58.1514 283.301 58.1449H284.6V57.5394C284.6 57.0511 284.473 56.6605 284.219 56.3676C283.972 56.0746 283.578 55.9281 283.038 55.9281C282.562 55.9281 282.188 56.042 281.915 56.2699C281.648 56.4978 281.514 56.8103 281.514 57.2074H278.692C278.692 56.5954 278.881 56.029 279.258 55.5082C279.636 54.9873 280.17 54.5804 280.86 54.2875C281.55 53.988 282.325 53.8383 283.184 53.8383C284.486 53.8383 285.518 54.167 286.28 54.8246C287.048 55.4756 287.432 56.3936 287.432 57.5785V62.1586C287.439 63.1612 287.579 63.9196 287.852 64.434V64.6H285ZM282.667 62.6371C283.083 62.6371 283.467 62.5459 283.819 62.3636C284.17 62.1748 284.431 61.9242 284.6 61.6117V59.7953H283.545C282.133 59.7953 281.381 60.2836 281.29 61.2601L281.28 61.4261C281.28 61.7777 281.403 62.0674 281.651 62.2953C281.898 62.5232 282.237 62.6371 282.667 62.6371Z" fill="#27AE60"/>
<path d="M292.842 62.3246H298.008V64.6H289.239V62.8812L294.209 56.3187H289.385V54.0336H297.852V55.7035L292.842 62.3246Z" fill="#27AE60"/>
<path d="M302.647 60.2347H300.303L299.971 50.3812H302.979L302.647 60.2347ZM301.475 61.7777C301.95 61.7777 302.331 61.9177 302.618 62.1976C302.911 62.4776 303.057 62.8357 303.057 63.2719C303.057 63.7015 302.911 64.0564 302.618 64.3363C302.331 64.6163 301.95 64.7562 301.475 64.7562C301.006 64.7562 300.625 64.6163 300.333 64.3363C300.046 64.0564 299.903 63.7015 299.903 63.2719C299.903 62.8422 300.046 62.4873 300.333 62.2074C300.625 61.9209 301.006 61.7777 301.475 61.7777Z" fill="#27AE60"/>
<path d="M22.2885 45.732C19.1165 45.732 16.1479 45.183 13.3825 44.085C10.6579 42.987 8.4822 41.5027 6.85553 39.632C5.26953 37.8833 3.86653 35.362 2.64653 32.068C1.42653 28.7333 0.816528 25.8053 0.816528 23.284C0.816528 19.4207 1.81286 15.7607 3.80553 12.304C5.83886 8.84733 8.5432 6.06166 11.9185 3.94699C15.2939 1.83233 18.8929 0.774994 22.7155 0.774994C25.1149 0.774994 27.4735 1.22233 29.7915 2.11699C31.5809 2.84899 33.0449 3.70299 34.1835 4.67899C35.3629 5.65499 36.8472 7.24099 38.6365 9.437C39.5719 10.535 40.0395 11.5517 40.0395 12.487C40.0395 13.585 39.5922 14.561 38.6975 15.415C37.8435 16.2283 36.8675 16.635 35.7695 16.635C34.5902 16.635 33.5939 16.147 32.7805 15.171L30.0965 11.999C29.2832 10.9823 28.2055 10.23 26.8635 9.74199C25.5215 9.25399 24.1592 9.00999 22.7765 9.00999C20.4585 9.00999 18.2422 9.68099 16.1275 11.023C14.0535 12.3243 12.3659 14.073 11.0645 16.269C9.80386 18.4243 9.17353 20.722 9.17353 23.162C9.17353 25.1547 9.5802 27.1677 10.3935 29.201C11.2069 31.1937 12.1422 32.8407 13.1995 34.142C14.0129 35.118 15.3955 35.9313 17.3475 36.582C19.2995 37.2327 21.3532 37.558 23.5085 37.558C25.1352 37.558 26.5179 37.3343 27.6565 36.887C28.7952 36.4397 29.6492 35.8297 30.2185 35.057C30.6252 34.4877 31.0725 33.4913 31.5605 32.068L32.5365 29.628C33.3499 28.0013 34.5495 27.188 36.1355 27.188C37.2335 27.188 38.2095 27.5947 39.0635 28.408C39.9582 29.1807 40.4055 30.1363 40.4055 31.275C40.4055 31.763 40.2835 32.312 40.0395 32.922L39.4905 34.447C39.0839 35.545 38.6772 36.521 38.2705 37.375C37.9045 38.1883 37.4165 39.0423 36.8065 39.937C35.3019 42.011 33.2482 43.4953 30.6455 44.39C28.0429 45.2847 25.2572 45.732 22.2885 45.732Z" fill="#8E44AD"/>
<path d="M68.6461 45.61C66.3281 44.7153 65.1691 43.231 65.1691 41.157C62.8511 44.4103 59.5571 45.6913 55.2871 45C53.4978 44.512 51.9321 43.78 50.5901 42.804C49.2888 41.828 48.2721 40.669 47.5401 39.327C46.8081 37.985 46.2591 36.6633 45.8931 35.362C45.5271 34.02 45.2831 32.5967 45.1611 31.092C45.0391 30.2787 45.0391 28.9367 45.1611 27.066C45.2831 25.1953 45.3848 23.8127 45.4661 22.918C45.5475 22.0233 45.6898 20.8033 45.8931 19.258C46.0965 17.672 46.2185 16.696 46.2591 16.33C46.4218 15.1913 46.9301 14.2763 47.7841 13.585C48.6788 12.8937 49.6751 12.6293 50.7731 12.792C51.9118 12.914 52.8268 13.4223 53.5181 14.317C54.2095 15.171 54.4941 16.1673 54.3721 17.306L53.9451 20.478C53.7418 21.9827 53.5995 23.1213 53.5181 23.894C53.4368 24.626 53.3351 25.7647 53.2131 27.31C53.1318 28.8147 53.1521 29.8923 53.2741 30.543C53.4368 32.5357 53.8231 34.0607 54.4331 35.118C55.0838 36.1347 56.0801 36.8057 57.4221 37.131C58.3168 37.375 59.3131 37.314 60.4111 36.948C61.5091 36.5413 62.6071 35.4637 63.7051 33.715C63.9491 33.471 64.1931 33.2677 64.4371 33.105C64.4778 27.127 64.4575 21.7793 64.3761 17.062C64.3761 15.842 64.7828 14.8253 65.5961 14.012C66.4095 13.158 67.4058 12.731 68.5851 12.731C69.8051 12.6903 70.8218 13.0767 71.6351 13.89C72.4891 14.7033 72.9365 15.72 72.9771 16.94C73.0585 22.9587 73.0585 31.1123 72.9771 41.401C72.9771 42.5397 72.5501 43.536 71.6961 44.39C70.8421 45.2033 69.8255 45.61 68.6461 45.61Z" fill="#8E44AD"/>
<path d="M81.1235 43.719C80.2695 42.9057 79.8425 41.9297 79.8425 40.791C79.8018 36.765 79.7815 33.593 79.7815 31.275C79.7002 30.787 79.7002 30.3193 79.7815 29.872C79.7408 25.358 79.7205 21.271 79.7205 17.611C79.7205 16.025 80.1272 14.8253 80.9405 14.012C81.7945 13.158 82.8112 12.731 83.9905 12.731C84.8445 12.731 85.6172 12.975 86.3085 13.463C87.0405 13.9103 87.5692 14.7237 87.8945 15.903C89.5212 15.0083 91.9612 13.9917 95.2145 12.853C96.2718 12.487 97.2885 12.548 98.2645 13.036C99.2812 13.4833 99.9725 14.2357 100.339 15.293C100.705 16.3503 100.644 17.3873 100.156 18.404C99.7082 19.38 98.9558 20.051 97.8985 20.417C94.1572 21.7183 90.9648 22.9993 88.3215 24.26C88.1588 25.5613 88.1385 27.4117 88.2605 29.811C88.3012 32.373 88.3418 35.9923 88.3825 40.669C88.3825 41.8483 87.9555 42.865 87.1015 43.719C86.2882 44.573 85.2918 45 84.1125 45C82.9738 45 81.9775 44.573 81.1235 43.719Z" fill="#8E44AD"/>
<path d="M105.488 43.719C104.634 42.9057 104.207 41.9297 104.207 40.791C104.166 36.765 104.146 33.593 104.146 31.275C104.064 30.787 104.064 30.3193 104.146 29.872C104.105 25.358 104.085 21.271 104.085 17.611C104.085 16.025 104.491 14.8253 105.305 14.012C106.159 13.158 107.175 12.731 108.355 12.731C109.209 12.731 109.981 12.975 110.673 13.463C111.405 13.9103 111.933 14.7237 112.259 15.903C113.885 15.0083 116.325 13.9917 119.579 12.853C120.636 12.487 121.653 12.548 122.629 13.036C123.645 13.4833 124.337 14.2357 124.703 15.293C125.069 16.3503 125.008 17.3873 124.52 18.404C124.072 19.38 123.32 20.051 122.263 20.417C118.521 21.7183 115.329 22.9993 112.686 24.26C112.523 25.5613 112.503 27.4117 112.625 29.811C112.665 32.373 112.706 35.9923 112.747 40.669C112.747 41.8483 112.32 42.865 111.466 43.719C110.652 44.573 109.656 45 108.477 45C107.338 45 106.342 44.573 105.488 43.719Z" fill="#8E44AD"/>
<path d="M128.144 40.852C128.022 32.2307 128.083 24.1583 128.327 16.635C128.368 15.4557 128.815 14.4797 129.669 13.707C130.564 12.8937 131.601 12.5073 132.78 12.548C133.959 12.5887 134.935 13.0563 135.708 13.951C136.521 14.805 136.908 15.8217 136.867 17.001C136.623 24.6057 136.562 32.5153 136.684 40.73C136.684 41.9093 136.277 42.926 135.464 43.78C134.651 44.5933 133.654 45 132.475 45C131.296 45.0407 130.279 44.6543 129.425 43.841C128.612 43.0277 128.185 42.0313 128.144 40.852ZM135.403 2.11699C136.257 2.93033 136.684 3.96733 136.684 5.22799C136.684 6.44799 136.257 7.48499 135.403 8.33899C134.549 9.19299 133.512 9.61999 132.292 9.61999C131.072 9.61999 130.035 9.19299 129.181 8.33899C128.327 7.48499 127.9 6.44799 127.9 5.22799C127.9 3.96733 128.327 2.90999 129.181 2.05599C130.035 1.20199 131.072 0.774994 132.292 0.774994C133.512 0.774994 134.549 1.22233 135.403 2.11699Z" fill="#8E44AD"/>
<path d="M162.86 44.756C160.99 45.4067 159.16 45.6507 157.37 45.488C155.581 45.3253 153.853 44.9187 152.185 44.268C149.583 43.2107 147.366 41.4823 145.536 39.083C143.706 36.6837 142.669 34.0403 142.425 31.153C142.263 28.7537 142.649 26.3137 143.584 23.833C144.56 21.3117 145.923 19.1563 147.671 17.367C148.932 16.0657 150.335 15.0287 151.88 14.256C153.466 13.4427 155.256 12.9343 157.248 12.731C159.241 12.5277 161.254 12.8733 163.287 13.768C164.385 14.2153 165.544 14.9473 166.764 15.964C166.846 16.0453 167.11 16.2893 167.557 16.696L168.655 17.611C169.591 18.343 170.119 19.2783 170.241 20.417C170.404 21.515 170.119 22.5317 169.387 23.467C168.655 24.3617 167.7 24.8903 166.52 25.053C165.382 25.175 164.345 24.87 163.409 24.138C163.328 24.0973 162.555 23.4467 161.091 22.186C160.603 21.7793 160.237 21.515 159.993 21.393C157.797 20.4983 155.764 21.0473 153.893 23.04C152.917 24.0567 152.145 25.2563 151.575 26.639C151.047 28.0217 150.843 29.323 150.965 30.543C151.047 31.6817 151.494 32.861 152.307 34.081C153.121 35.2603 154.198 36.1143 155.54 36.643C156.964 37.1717 158.163 37.375 159.139 37.253C160.156 37.0903 160.969 36.704 161.579 36.094C161.783 35.8907 162.027 35.4637 162.311 34.813C163.165 32.9423 163.613 31.9663 163.653 31.885C164.182 30.8683 164.995 30.1973 166.093 29.872C167.232 29.506 168.33 29.5873 169.387 30.116C170.445 30.604 171.136 31.397 171.461 32.495C171.827 33.593 171.746 34.6503 171.217 35.667C171.095 35.911 170.973 36.1753 170.851 36.46C170.729 36.704 170.607 36.9887 170.485 37.314C170.363 37.6393 170.241 37.9037 170.119 38.107C169.469 39.6523 168.696 40.8723 167.801 41.767C166.419 43.1903 164.772 44.1867 162.86 44.756Z" fill="#8E44AD"/>
<path d="M199.88 45.61C197.562 44.7153 196.403 43.231 196.403 41.157C194.085 44.4103 190.791 45.6913 186.521 45C184.731 44.512 183.166 43.78 181.824 42.804C180.522 41.828 179.506 40.669 178.774 39.327C178.042 37.985 177.493 36.6633 177.127 35.362C176.761 34.02 176.517 32.5967 176.395 31.092C176.273 30.2787 176.273 28.9367 176.395 27.066C176.517 25.1953 176.618 23.8127 176.7 22.918C176.781 22.0233 176.923 20.8033 177.127 19.258C177.33 17.672 177.452 16.696 177.493 16.33C177.655 15.1913 178.164 14.2763 179.018 13.585C179.912 12.8937 180.909 12.6293 182.007 12.792C183.145 12.914 184.06 13.4223 184.752 14.317C185.443 15.171 185.728 16.1673 185.606 17.306L185.179 20.478C184.975 21.9827 184.833 23.1213 184.752 23.894C184.67 24.626 184.569 25.7647 184.447 27.31C184.365 28.8147 184.386 29.8923 184.508 30.543C184.67 32.5357 185.057 34.0607 185.667 35.118C186.317 36.1347 187.314 36.8057 188.656 37.131C189.55 37.375 190.547 37.314 191.645 36.948C192.743 36.5413 193.841 35.4637 194.939 33.715C195.183 33.471 195.427 33.2677 195.671 33.105C195.711 27.127 195.691 21.7793 195.61 17.062C195.61 15.842 196.016 14.8253 196.83 14.012C197.643 13.158 198.639 12.731 199.819 12.731C201.039 12.6903 202.055 13.0767 202.869 13.89C203.723 14.7033 204.17 15.72 204.211 16.94C204.292 22.9587 204.292 31.1123 204.211 41.401C204.211 42.5397 203.784 43.536 202.93 44.39C202.076 45.2033 201.059 45.61 199.88 45.61Z" fill="#8E44AD"/>
<path d="M219.494 41.523C219.453 42.7023 219.006 43.6987 218.152 44.512C217.339 45.3253 216.342 45.7117 215.163 45.671C213.984 45.671 212.987 45.2643 212.174 44.451C211.361 43.597 210.954 42.5803 210.954 41.401C211.035 41.401 211.056 35.545 211.015 23.833L210.954 5.16699C210.954 3.98766 211.361 2.99133 212.174 2.17799C213.028 1.32399 214.045 0.896993 215.224 0.896993C216.403 0.896993 217.4 1.32399 218.213 2.17799C219.067 2.99133 219.494 3.98766 219.494 5.16699C219.494 8.42033 219.494 12.4667 219.494 17.306C219.535 22.1453 219.555 26.5373 219.555 30.482C219.555 34.386 219.535 38.0663 219.494 41.523Z" fill="#8E44AD"/>
<path d="M249.382 45.61C247.064 44.7153 245.905 43.231 245.905 41.157C243.587 44.4103 240.293 45.6913 236.023 45C234.234 44.512 232.668 43.78 231.326 42.804C230.025 41.828 229.008 40.669 228.276 39.327C227.544 37.985 226.995 36.6633 226.629 35.362C226.263 34.02 226.019 32.5967 225.897 31.092C225.775 30.2787 225.775 28.9367 225.897 27.066C226.019 25.1953 226.121 23.8127 226.202 22.918C226.284 22.0233 226.426 20.8033 226.629 19.258C226.833 17.672 226.955 16.696 226.995 16.33C227.158 15.1913 227.666 14.2763 228.52 13.585C229.415 12.8937 230.411 12.6293 231.509 12.792C232.648 12.914 233.563 13.4223 234.254 14.317C234.946 15.171 235.23 16.1673 235.108 17.306L234.681 20.478C234.478 21.9827 234.336 23.1213 234.254 23.894C234.173 24.626 234.071 25.7647 233.949 27.31C233.868 28.8147 233.888 29.8923 234.01 30.543C234.173 32.5357 234.559 34.0607 235.169 35.118C235.82 36.1347 236.816 36.8057 238.158 37.131C239.053 37.375 240.049 37.314 241.147 36.948C242.245 36.5413 243.343 35.4637 244.441 33.715C244.685 33.471 244.929 33.2677 245.173 33.105C245.214 27.127 245.194 21.7793 245.112 17.062C245.112 15.842 245.519 14.8253 246.332 14.012C247.146 13.158 248.142 12.731 249.321 12.731C250.541 12.6903 251.558 13.0767 252.371 13.89C253.225 14.7033 253.673 15.72 253.713 16.94C253.795 22.9587 253.795 31.1123 253.713 41.401C253.713 42.5397 253.286 43.536 252.432 44.39C251.578 45.2033 250.562 45.61 249.382 45.61Z" fill="#8E44AD"/>
<path d="M305.048 40.913C305.007 42.0923 304.56 43.0887 303.706 43.902C302.852 44.7153 301.835 45.1017 300.656 45.061C299.477 45.0203 298.48 44.573 297.667 43.719C296.854 42.865 296.467 41.8483 296.508 40.669C296.589 38.0257 296.548 30.2177 296.386 17.245C293.377 21.027 290.408 25.0733 287.48 29.384C286.788 30.36 285.874 30.97 284.735 31.214C283.596 31.4173 282.539 31.1937 281.563 30.543C281.441 30.4617 281.339 30.3803 281.258 30.299C280.811 30.0143 280.424 29.6687 280.099 29.262L270.705 17.428C270.746 17.5093 270.746 21.4133 270.705 29.14C270.705 36.826 270.705 40.6893 270.705 40.73C270.705 41.9093 270.278 42.926 269.424 43.78C268.61 44.5933 267.614 45 266.435 45C265.256 45 264.239 44.5933 263.385 43.78C262.571 42.926 262.165 41.9093 262.165 40.73C262.165 39.022 262.165 36.155 262.165 32.129C262.205 28.103 262.226 24.992 262.226 22.796C262.226 20.6 262.185 17.8753 262.104 14.622C262.023 11.7347 261.88 8.74566 261.677 5.65499C261.596 4.47566 261.941 3.43866 262.714 2.54399C263.487 1.64933 264.463 1.16133 265.642 1.07999C266.252 1.03933 266.821 1.12066 267.35 1.32399C268.488 1.48666 269.404 2.03566 270.095 2.97099L283.637 19.99C288.029 13.89 292.502 8.39999 297.057 3.51999C297.911 2.05599 299.172 1.34433 300.839 1.38499C302.018 1.42566 303.015 1.87299 303.828 2.72699C304.641 3.58099 305.028 4.59766 304.987 5.77699C304.865 9.64033 304.865 15.5573 304.987 23.528C305.109 31.458 305.129 37.253 305.048 40.913Z" fill="#8E44AD"/>
</svg>
